<svg version="1.1" id="Layer_1" xmlns="http://www.w3.org/2000/svg" xmlns:xlink="http://www.w3.org/1999/xlink" x="0px" y="0px"
	 width="100%" viewBox="0 0 512 512" enable-background="new 0 0 512 512" xml:space="preserve">
<path fill="#000000" opacity="1.000000" stroke="none" 
	d="
M513.000000,195.000000 
	C513.000000,299.974487 512.982056,404.449036 513.083740,508.923401 
	C513.086853,512.179199 512.659363,513.106201 509.078400,513.103638 
	C341.119476,512.984619 173.160461,512.983521 5.201567,513.106689 
	C1.465452,513.109375 0.911679,512.179749 0.913724,508.703491 
	C1.012449,340.911194 1.011060,173.118820 0.921436,5.326500 
	C0.919627,1.937847 1.349356,0.884007 5.171555,0.886986 
	C173.130447,1.017882 341.089478,1.014642 509.048401,0.899685 
	C512.568054,0.897276 513.095947,1.726034 513.089539,5.046669 
	C512.968262,68.197601 513.000000,131.348831 513.000000,195.000000 
z"/>
<path fill="#64F2D4" opacity="1.000000" stroke="none" 
	d="
M282.632111,200.667816 
	C300.508087,200.903763 317.964020,200.920990 335.419617,201.011185 
	C343.911957,201.055069 345.564331,200.692963 346.892365,210.051132 
	C347.925415,217.330658 348.322662,224.700424 349.005981,232.475006 
	C350.994141,241.248718 351.509491,249.758148 352.065735,258.665802 
	C353.116119,268.282379 354.237976,277.486969 355.330200,286.695068 
	C356.232758,294.303925 357.955872,301.802734 358.033264,309.525574 
	C358.141602,320.329071 360.577667,330.881866 361.742401,341.570007 
	C362.663574,350.023346 364.629608,358.446106 363.883087,366.988129 
	C363.570648,370.562714 365.760254,373.652130 364.434662,377.588013 
	C363.373566,380.738708 361.970734,381.611816 359.348969,381.705170 
	C354.043060,381.894073 348.731323,381.967316 343.421539,381.989655 
	C332.941711,382.033783 322.461578,382.010681 311.519592,382.072083 
	C310.390808,382.621826 309.699615,383.214447 308.860229,383.181396 
	C300.810181,382.864349 292.732208,383.854401 284.324615,382.402740 
	C268.956696,382.096375 253.966141,382.056763 238.513885,382.079529 
	C237.382965,382.635101 236.688873,383.218384 235.845978,383.189392 
	C227.769485,382.911987 219.674179,383.734009 211.273163,382.457794 
	C198.115768,382.092194 185.295258,382.088745 172.475540,381.984985 
	C165.127518,381.925507 162.572189,380.838837 163.886765,371.201599 
	C165.033859,362.791992 166.141602,354.370270 166.961044,345.924225 
	C168.396545,331.128601 169.654236,316.333344 171.761017,301.591888 
	C172.959076,293.208923 174.062927,284.725006 174.208679,276.128571 
	C174.328476,269.062225 175.169952,261.868561 176.988052,254.495514 
	C176.674866,245.880264 178.934860,237.891754 178.993820,229.328094 
	C179.996292,222.036789 180.966660,215.136581 182.001282,208.246002 
	C182.771286,203.117691 185.431305,201.010040 191.133270,201.004440 
	C212.097122,200.983887 233.060989,200.987854 254.486511,200.919769 
	C255.613617,200.367661 256.303589,199.777832 257.139435,199.813843 
	C265.493591,200.173691 273.887634,199.049789 282.632111,200.667816 
z"/>
<path fill="#64F2D4" opacity="1.000000" stroke="none" 
	d="
M255.307129,162.394348 
	C247.374130,163.095047 239.819138,164.594406 232.217026,164.892776 
	C213.107086,165.642822 194.088547,168.883713 174.952057,167.847870 
	C162.433502,167.170227 151.643921,162.100739 143.296371,152.039383 
	C139.423279,147.371140 136.158600,142.442993 133.767715,137.042297 
	C131.961365,132.961990 131.551376,128.146011 131.262650,123.790291 
	C130.697479,115.264595 128.802429,106.804420 129.094864,98.290878 
	C129.894806,75.002914 141.218872,59.655788 162.243820,51.442028 
	C166.687195,49.706150 171.814407,49.261707 176.656937,49.092506 
	C191.294968,48.581055 205.742996,46.115444 220.433197,45.718098 
	C235.584351,45.308285 250.651199,42.371040 265.804993,41.172325 
	C271.698120,40.706161 277.556854,39.619942 283.558685,39.923656 
	C294.278534,40.466114 304.821106,37.252697 315.575531,38.009167 
	C331.885254,39.156395 344.790100,45.992920 354.102844,59.878258 
	C360.876221,69.977348 361.682129,81.347275 362.964539,92.722672 
	C363.572479,98.115143 364.096649,103.509438 364.081696,108.980713 
	C364.052063,119.811043 359.976349,128.852036 354.075134,137.774307 
	C349.128540,145.253174 341.922302,149.299316 334.764984,153.392319 
	C330.730103,155.699722 325.499786,156.578613 320.741028,156.829269 
	C308.435028,157.477417 296.317169,160.139450 283.506897,160.082947 
	C274.052826,162.395844 264.944397,163.464844 255.307129,162.394348 
z"/>
<path fill="#666666" opacity="1.000000" stroke="none" 
	d="
M178.625488,228.812027 
	C180.021164,229.100891 181.131714,229.408066 181.034195,230.643188 
	C180.418274,238.444000 180.628296,246.368027 177.383759,253.966522 
	C165.768036,253.713043 154.902023,251.128433 144.053162,248.511719 
	C133.882278,246.058533 123.822853,243.363068 114.141853,239.155548 
	C102.668243,234.168961 93.709259,226.154541 87.025917,216.124878 
	C80.833794,206.832397 76.588310,196.335281 72.836678,185.660706 
	C69.962090,177.481583 68.055580,169.035980 65.009293,160.546936 
	C64.991768,157.787735 66.626869,156.586594 68.522522,155.924820 
	C74.133209,153.966125 79.454720,151.379654 84.804070,148.835449 
	C86.300957,148.123520 87.918663,147.705383 89.810333,148.865417 
	C93.028587,158.193100 95.682869,167.330246 99.040062,176.201370 
	C102.888802,186.371323 106.857681,196.525421 113.595947,205.331116 
	C115.853920,208.281876 118.636421,210.757446 121.533089,212.531265 
	C126.504799,215.575760 132.010773,218.296738 137.649857,219.567291 
	C145.158005,221.259003 152.276840,224.338028 159.927597,225.387650 
	C166.080841,226.231827 172.247147,227.020187 178.625488,228.812027 
z"/>
<path fill="#666666" opacity="1.000000" stroke="none" 
	d="
M352.442017,259.046600 
	C351.425079,258.529449 350.392853,258.030365 350.329071,257.428589 
	C349.482880,249.448914 347.375458,241.567261 348.669434,233.179993 
	C356.917847,231.701492 365.009552,231.580460 372.693207,229.017410 
	C381.795044,225.981262 391.730957,224.551437 398.182343,216.273010 
	C403.322784,209.676788 406.951416,202.102234 409.590942,194.347153 
	C412.894409,184.641251 417.451355,175.284485 418.953613,164.598663 
	C420.786591,161.889267 423.037720,162.734390 424.705475,164.000916 
	C430.045349,168.056046 435.826324,171.205170 442.053223,173.635757 
	C443.609314,174.243179 444.875732,175.401642 445.184937,177.589966 
	C440.377502,188.075546 438.346558,199.177444 433.843536,209.303116 
	C427.237946,224.156952 419.854248,238.788879 404.091339,246.251282 
	C392.351318,251.809204 379.690216,254.571716 366.987793,256.964050 
	C362.320831,257.842987 357.582642,258.343719 352.442017,259.046600 
z"/>
<path fill="#64F3D5" opacity="1.000000" stroke="none" 
	d="
M445.557251,177.987045 
	C444.022461,176.364410 442.331848,175.653214 440.597931,175.118500 
	C434.464386,173.226974 428.958130,170.227844 424.158661,165.965393 
	C422.865021,164.816498 421.513184,163.952240 419.325989,164.192749 
	C417.524261,162.817154 416.962524,160.884003 415.521332,159.333145 
	C413.388397,157.037903 412.228363,153.706329 411.856171,150.062103 
	C410.618011,137.939468 414.439941,126.886597 417.905884,115.663200 
	C418.529419,113.644157 419.610168,114.040497 420.793457,114.018677 
	C427.239014,113.899757 433.290100,115.777946 439.180969,118.071037 
	C445.997009,120.724251 445.914246,120.860321 443.500946,128.051193 
	C442.221436,131.863678 441.405731,135.875107 439.743469,139.504929 
	C437.674316,144.023209 439.509033,146.582840 443.201172,148.620499 
	C446.757782,150.583359 449.663300,151.971130 453.713287,148.156174 
	C459.929108,142.301132 465.255737,135.630020 471.562286,129.895203 
	C473.489716,128.142532 475.213165,126.921768 477.476410,129.024246 
	C482.671631,133.850372 488.166138,138.335571 492.775879,143.821762 
	C494.309601,145.647110 494.089142,146.444595 492.814545,147.662704 
	C482.868317,157.168060 474.785553,168.657990 462.237610,175.403214 
	C456.949432,178.245895 451.544037,177.963989 445.557251,177.987045 
z"/>
<path fill="#64F3D5" opacity="1.000000" stroke="none" 
	d="
M90.427017,149.102875 
	C85.856735,149.413849 82.824127,152.343185 79.284477,154.051208 
	C74.810280,156.210190 69.622818,156.659714 65.298141,160.028931 
	C59.318596,160.390152 53.813591,161.186798 47.990765,160.292587 
	C42.191826,159.402069 38.231491,156.088806 34.122131,153.004425 
	C27.951004,148.372543 23.614998,141.811005 18.516834,136.051941 
	C14.177679,131.150284 14.364386,129.767914 19.456959,125.988586 
	C23.309927,123.129211 26.909073,119.928177 30.626694,116.885933 
	C34.237240,113.931313 36.173363,114.654709 39.441650,117.719719 
	C44.833500,122.776222 48.081505,129.740005 54.368526,133.952576 
	C55.412537,134.652115 56.476624,135.419174 57.486229,134.934402 
	C61.800003,132.863144 66.533188,132.317902 70.944672,129.991501 
	C78.629150,125.939087 78.909416,119.625450 78.975960,112.738121 
	C79.070045,103.000648 79.000351,102.999832 88.803116,102.999901 
	C93.627457,102.999931 98.452400,103.044006 103.275826,102.977859 
	C105.003670,102.954178 106.107307,103.170387 106.026741,105.347900 
	C105.658699,115.295197 106.916649,125.282951 103.186714,135.046173 
	C100.718124,141.507797 96.329124,145.621246 90.427017,149.102875 
z"/>
<path fill="#64F3D5" opacity="1.000000" stroke="none" 
	d="
M314.733459,421.573547 
	C320.007477,423.597229 323.857361,427.443085 327.536316,430.623352 
	C333.332947,435.634216 339.333740,441.112427 342.322693,448.754517 
	C344.019073,453.091888 342.622711,456.078461 338.310974,458.103943 
	C329.450470,462.266296 319.942566,462.851685 310.463928,464.156311 
	C298.740601,465.769897 287.050476,467.149506 275.208405,466.999176 
	C273.093628,466.972351 271.081299,466.718231 268.967194,466.148407 
	C260.050995,463.745148 259.123474,460.638184 263.826752,452.527740 
	C270.095856,441.717194 278.507050,432.850189 287.600281,424.103546 
	C294.371887,418.987885 301.392365,416.397278 309.635468,418.816040 
	C311.413635,419.337860 313.080292,419.987122 314.733459,421.573547 
z"/>
<path fill="#64F3D5" opacity="1.000000" stroke="none" 
	d="
M236.678650,423.859680 
	C245.549545,431.791382 252.427521,440.827942 257.986572,450.893311 
	C259.878937,454.319672 259.645233,458.309265 258.693451,461.496552 
	C257.773804,464.576141 253.472855,464.538757 250.451340,464.939484 
	C233.035156,467.249298 215.752243,465.757538 198.468811,463.141510 
	C193.997665,462.464752 189.514969,462.378326 185.020889,461.175323 
	C175.684280,458.675903 176.438934,452.780945 180.896271,446.979004 
	C186.340683,439.892242 193.023895,433.715240 200.836075,428.933105 
	C203.727859,427.162903 205.788086,424.086914 209.637604,422.998657 
	C218.011963,417.178131 228.944901,417.547394 236.678650,423.859680 
z"/>
<path fill="#666767" opacity="1.000000" stroke="none" 
	d="
M254.977112,162.524155 
	C263.973999,160.238922 273.053619,159.008392 282.680237,160.001617 
	C287.559204,171.236404 286.570587,182.572617 284.525787,193.943634 
	C284.154785,196.006821 283.569275,198.031464 283.067535,200.465210 
	C273.973846,202.949600 264.873901,202.564560 255.356354,200.975281 
	C255.950882,195.706161 256.789154,190.516541 257.994293,185.413559 
	C259.866394,177.486298 257.616638,170.191696 254.977112,162.524155 
z"/>
<path fill="#666867" opacity="1.000000" stroke="none" 
	d="
M237.042282,423.533752 
	C236.206879,425.393372 235.109207,424.973358 234.101852,424.279388 
	C227.582703,419.788116 220.762329,419.977997 213.700577,422.791016 
	C212.841248,423.133331 211.768265,422.939270 210.380157,422.913330 
	C209.990219,410.610474 210.007248,398.388000 210.050690,386.165588 
	C210.054642,385.051514 209.592621,383.848297 210.721344,382.493927 
	C219.691803,380.591248 228.462296,380.863739 237.645660,382.033936 
	C238.290894,395.799469 237.691879,409.435791 237.042282,423.533752 
z"/>
<path fill="#666767" opacity="1.000000" stroke="none" 
	d="
M315.029541,421.403168 
	C314.722748,421.890228 314.349945,422.076538 314.078491,421.979462 
	C305.303375,418.841156 297.025177,419.816223 289.205780,424.882477 
	C289.034607,424.993378 288.605164,424.705719 288.106934,424.302887 
	C286.188690,410.390533 283.921112,396.830902 283.969299,382.591553 
	C292.699646,380.557617 301.467651,380.900513 310.649414,382.025269 
	C311.934631,390.207428 312.842010,398.282837 313.677368,406.365723 
	C314.179840,411.227936 314.570068,416.101715 315.029541,421.403168 
z"/>
<path fill="#686A6A" opacity="1.000000" stroke="none" 
	d="
M205.757233,274.990845 
	C204.679947,268.940552 206.239990,263.425568 206.763412,257.842285 
	C207.787857,246.914734 209.063385,236.008545 209.929428,225.069336 
	C210.305237,220.322617 212.633255,218.793198 217.047333,218.836365 
	C228.533127,218.948700 240.020752,218.871124 251.507645,218.870773 
	C271.484863,218.870148 291.462067,218.865952 311.439270,218.873032 
	C318.988800,218.875702 319.463470,219.058868 320.307434,226.338531 
	C322.030426,241.200119 323.538696,256.087830 324.990387,270.978943 
	C325.487457,276.077759 323.739136,277.562775 317.557739,277.573639 
	C293.751648,277.615448 269.945435,277.593048 246.139267,277.593750 
	C234.818848,277.594086 223.498428,277.587830 212.178009,277.595825 
	C209.822723,277.597504 207.450134,277.697357 205.757233,274.990845 
z"/>
<path fill="#666B6A" opacity="1.000000" stroke="none" 
	d="
M216.320755,307.627167 
	C211.116379,308.499847 207.390488,306.835388 205.288406,302.403015 
	C203.652176,298.952942 204.267731,295.561157 206.858978,292.726074 
	C209.728485,289.586548 213.353622,288.782104 217.276672,290.248413 
	C220.806198,291.567627 222.957291,294.202606 223.175949,298.098785 
	C223.444153,302.877655 221.104111,305.924286 216.320755,307.627167 
z"/>
<path fill="#666B6A" opacity="1.000000" stroke="none" 
	d="
M240.443512,307.807922 
	C235.800385,306.540344 233.111481,303.932861 232.811386,299.378204 
	C232.559601,295.556854 234.169098,292.601349 237.556900,290.781616 
	C241.101837,288.877472 244.647232,289.150604 247.819550,291.562164 
	C250.992630,293.974304 252.343353,297.252869 251.112869,301.200195 
	C249.552338,306.206299 245.873367,308.137115 240.443512,307.807922 
z"/>
<path fill="#666868" opacity="1.000000" stroke="none" 
	d="
M262.847351,144.895264 
	C236.837540,147.079636 211.275558,149.070160 185.748993,151.441666 
	C165.712723,153.303116 150.539078,140.981140 148.848007,120.961113 
	C148.259613,113.995132 147.309906,107.038582 147.137466,100.062592 
	C146.666565,81.011192 158.743423,67.667328 177.643433,66.026573 
	C219.604218,62.383854 261.570068,58.799282 303.529602,55.142033 
	C314.255615,54.207146 324.527283,54.778378 333.147156,62.414845 
	C339.149872,67.732735 342.758728,74.373512 343.735931,82.240562 
	C344.740448,90.327652 345.679504,98.469032 345.854340,106.603691 
	C346.252899,125.148094 334.900085,138.139526 316.534424,140.085480 
	C298.823090,141.962082 281.054077,143.294281 262.847351,144.895264 
z"/>
<path fill="#CCCCCC" opacity="1.000000" stroke="none" 
	d="
M216.213837,246.281967 
	C216.485657,241.544556 217.320007,237.090225 217.358017,232.629120 
	C217.400665,227.624741 219.782654,226.928909 224.180710,226.968246 
	C247.994339,227.181229 271.810883,227.069153 295.626434,227.069244 
	C299.789978,227.069260 303.959351,227.203995 308.115082,227.024139 
	C310.941284,226.901794 312.429382,227.695038 312.620880,230.771805 
	C312.961456,236.244659 313.575500,241.700485 313.981384,247.605423 
	C312.213135,249.317413 310.013489,249.335846 308.343140,250.977081 
	C305.221191,254.044510 302.448792,253.328232 300.685608,249.271576 
	C298.871552,245.097885 296.755005,241.091537 294.887054,235.915863 
	C291.619293,241.593048 291.170746,246.913223 289.609894,251.865402 
	C288.761475,254.557327 289.405884,258.586060 285.696167,259.192688 
	C282.006256,259.796051 281.126770,255.859360 279.603485,253.501633 
	C276.694397,248.998978 276.835205,248.880630 271.746124,251.505127 
	C270.279236,252.261612 268.922760,252.263046 267.503021,251.437027 
	C263.557098,249.141235 261.230743,249.550827 258.659058,253.217911 
	C257.137360,255.387833 255.817459,257.683624 253.980850,259.639252 
	C252.937454,260.750214 252.097076,262.117249 250.305984,261.495911 
	C248.537857,260.882538 247.762009,259.381805 247.613998,257.644684 
	C247.359940,254.662933 247.362900,251.654816 247.547012,248.677963 
	C247.766144,245.134888 246.639648,241.803848 246.200211,238.377136 
	C245.764313,234.978104 243.993301,234.588654 241.572632,237.041428 
	C239.097214,239.549698 237.531204,242.687408 235.851135,245.748566 
	C234.699524,247.846848 233.788712,250.767181 230.380875,248.198257 
	C229.387558,247.449463 228.609985,248.387711 227.862869,249.097717 
	C221.772415,254.885559 220.324844,254.556152 216.213837,246.281967 
z"/>
<path fill="#CCCCCC" opacity="1.000000" stroke="none" 
	d="
M314.711304,252.616333 
	C315.277435,256.903259 315.498627,260.898590 316.102448,264.835236 
	C316.619934,268.208740 315.386627,269.282166 312.105865,269.215057 
	C304.781036,269.065308 297.450989,269.171661 290.123047,269.171753 
	C266.473785,269.171967 242.823929,269.085754 219.175858,269.252502 
	C215.078506,269.281372 213.362854,268.305725 214.109039,263.964722 
	C214.810745,259.882507 215.053192,255.721329 215.775391,251.300690 
	C217.389038,249.837585 218.536972,250.386276 219.486435,251.502197 
	C221.963211,254.413101 224.134338,253.402084 225.994568,250.914383 
	C227.536377,248.852524 228.767899,247.425705 231.608795,249.387024 
	C233.387558,250.615067 234.052460,248.339417 234.673080,247.111481 
	C236.620850,243.257797 238.529373,239.413162 241.665268,236.314041 
	C244.087997,233.919739 245.648834,234.180084 246.334396,237.600174 
	C247.410858,242.970230 248.180145,248.376297 248.010742,253.880554 
	C247.964783,255.373718 247.853973,256.887665 248.104843,258.361938 
	C248.355011,259.832123 248.685287,261.452057 250.368423,261.930023 
	C252.270096,262.470062 252.845947,260.773346 253.746017,259.617554 
	C256.083832,256.615479 257.883789,253.174164 260.885376,250.712433 
	C262.855255,249.096817 264.822876,248.197693 266.928284,250.642166 
	C268.775177,252.786530 270.706177,252.232559 272.506866,250.487595 
	C275.146545,247.929626 277.174957,248.643616 278.860596,251.594635 
	C280.176758,253.898895 281.721436,256.061035 283.132812,258.306793 
	C283.765472,259.313446 284.529816,260.250153 285.925507,259.938049 
	C287.263824,259.638763 287.702179,258.568542 287.920685,257.365509 
	C288.897491,251.986771 290.640137,246.802475 291.939667,241.505905 
	C292.340302,239.872940 292.649506,237.936737 294.689331,237.902573 
	C296.497040,237.872314 296.750946,239.798386 297.303223,241.149399 
	C298.435181,243.918564 299.723297,246.620956 301.032074,249.303314 
	C303.032776,253.403824 304.835785,253.869080 308.041412,250.880264 
	C311.138184,247.992920 312.953613,249.161621 314.711304,252.616333 
z"/>
<path fill="#F5F5F5" opacity="1.000000" stroke="none" 
	d="
M314.938049,252.573853 
	C312.503937,250.676422 310.203186,249.214539 307.641571,252.848007 
	C305.726501,255.564407 303.753265,254.565948 301.938782,252.538345 
	C299.672546,250.005966 298.521606,246.861511 297.136383,243.848572 
	C296.386536,242.217667 296.098450,240.351379 294.031921,238.444092 
	C292.277893,245.010117 290.606293,251.135635 289.020172,257.283173 
	C288.527496,259.192871 288.599487,261.542664 286.009430,261.827850 
	C283.872620,262.063110 282.879883,260.270935 281.910919,258.695068 
	C280.953369,257.137756 279.956543,255.602707 279.051147,254.015549 
	C277.315491,250.972870 275.597168,248.522446 271.987183,252.178940 
	C270.575043,253.609299 268.341278,253.594101 266.976868,252.133453 
	C264.237122,249.200516 262.321442,250.682083 260.467377,252.948853 
	C258.473145,255.386978 256.657410,257.971100 254.663803,260.409760 
	C253.448593,261.896271 252.454391,264.277283 250.132599,263.695831 
	C247.419800,263.016479 247.238861,260.349335 247.064911,258.002472 
	C246.684723,252.873383 246.436630,247.733398 245.981323,242.611481 
	C245.781937,240.368362 245.207199,238.158615 244.723221,235.495209 
	C239.818085,238.734879 238.055893,243.448029 235.602356,247.704895 
	C234.406662,249.779419 233.581390,254.016205 229.725128,250.043381 
	C228.911377,249.205032 228.093735,249.878082 227.701385,250.597961 
	C224.269394,256.894714 220.534988,254.351074 216.402374,251.018372 
	C215.992920,249.613876 215.932770,248.221222 215.937683,246.415222 
	C216.154007,246.071198 216.305801,246.139420 216.456497,246.209991 
	C219.083023,247.440140 219.507980,251.579712 222.557541,251.680099 
	C225.557220,251.778870 226.148514,248.105804 228.109009,246.387665 
	C230.525589,244.269836 231.812714,245.133072 232.501846,248.668137 
	C235.555542,243.068436 237.892166,238.086533 242.069794,234.350266 
	C245.200043,231.550720 246.168350,231.783463 247.206604,235.881271 
	C248.895905,242.548676 249.105316,249.354553 249.129791,256.182800 
	C249.135086,257.660736 249.052597,259.616486 250.572021,260.144592 
	C252.315353,260.750488 252.924149,258.648071 253.804535,257.587402 
	C256.431091,254.423050 258.010254,250.324249 262.068634,248.460403 
	C263.380066,247.858093 265.053864,246.402267 266.121979,247.917953 
	C268.745453,251.640762 270.906860,250.773880 273.625122,248.080978 
	C275.324829,246.397110 277.237213,246.703171 278.591888,248.933807 
	C280.145538,251.491989 281.750153,254.019485 283.355438,256.545837 
	C283.887939,257.383881 284.477631,258.460632 285.587860,258.239258 
	C286.696472,258.018219 286.756378,256.785645 287.017487,255.824371 
	C288.760437,249.407135 290.470825,242.979980 292.329803,236.596222 
	C292.708405,235.296051 292.761932,233.247192 294.772949,233.330566 
	C296.667847,233.409134 296.817810,235.237762 297.128662,236.689865 
	C298.082947,241.147232 300.560760,244.973740 302.286102,249.110168 
	C303.482208,251.977783 305.424530,252.500656 307.505066,249.884064 
	C309.036499,247.958099 310.459534,246.153961 313.542908,247.983185 
	C314.253693,249.436371 314.619751,250.825348 314.938049,252.573853 
z"/>
<path fill="#64EFD1" opacity="1.000000" stroke="none" 
	d="
M308.937805,119.978271 
	C289.281616,134.166412 262.619385,125.564529 257.226532,103.463493 
	C254.321564,91.558235 257.663300,81.159866 266.846466,73.229797 
	C277.220825,64.271103 289.270630,62.459270 301.860352,67.981209 
	C323.345490,77.404778 327.028839,104.075233 308.937805,119.978271 
z"/>
<path fill="#64EFD1" opacity="1.000000" stroke="none" 
	d="
M175.090805,98.327530 
	C180.130035,83.919655 191.731384,75.332085 205.965958,75.162125 
	C218.946320,75.007141 231.676590,83.428261 236.211090,95.169388 
	C241.483643,108.821587 236.620850,123.809631 224.251541,132.030914 
	C211.737106,140.348648 193.915482,138.698776 183.298492,128.030624 
	C175.163498,119.856438 172.299759,110.038834 175.090805,98.327530 
z"/>
<path fill="#444646" opacity="1.000000" stroke="none" 
	d="
M275.340576,110.756638 
	C267.969391,103.671677 266.202087,95.821693 269.990143,88.043221 
	C273.792236,80.235931 282.566620,75.794525 291.606964,77.101234 
	C300.297485,78.357384 307.069702,84.624931 308.494690,93.125992 
	C309.734070,100.519890 307.040253,106.586273 301.135071,111.030930 
	C294.443451,116.067528 287.071014,116.463928 279.457642,113.284859 
	C278.097992,112.717102 276.900696,111.760399 275.340576,110.756638 
z"/>
<path fill="#444646" opacity="1.000000" stroke="none" 
	d="
M187.248764,113.367157 
	C184.499695,104.462822 186.496780,97.028648 192.780228,91.868965 
	C199.528717,86.327415 208.893494,85.521622 216.575500,89.821487 
	C223.698746,93.808586 227.277237,100.931885 226.222916,109.025497 
	C225.247314,116.514893 219.343933,122.894424 211.563187,124.867645 
	C203.364578,126.946838 194.531616,124.018867 189.717880,117.558479 
	C188.830826,116.368004 188.162613,115.014496 187.248764,113.367157 
z"/>
</svg>